# AST/ASF file generated using VICON BodyLanguage
# -----------------------------------------------
:version 1.10
:name VICON
:units
  mass 1.0
  length 0.45
  angle deg
:documentation
   .ast/.asf automatically generated from VICON data using
   VICON BodyBuilder and BodyLanguage model FoxedUp or BRILLIANT.MOD
:root
   order TX TY TZ RX RY RZ
   axis XYZ
   position 0 0 0  
   orientation 0 0 0 
:bonedata
  begin
     id 1 
     name lhipjoint
     direction 0.627457 -0.725269 0.283342 
     length 2.53237 
     axis 0 0 0  XYZ
  end
  begin
     id 2 
     name lfemur
     direction 0.34202 -0.939693 0  
     length 7.32496  
     axis 0 0 20  XYZ
    dof rx ry rz
    limits (-160.0 20.0)
           (-70.0 70.0)
           (-60.0 70.0)
  end
  begin
     id 3 
     name ltibia
     direction 0.34202 -0.939693 0   
     length 7.69674   
     axis 0 0 20   XYZ
    dof rx
    limits (-10.0 170.0)
  end
  begin
     id 4 
     name lfoot
     direction 0.127289 -0.349722 0.928166   
     length 1.8612   
     axis -90 7.62852e-016 20   XYZ
    dof rx rz
    limits (-45.0 90.0)
           (-70.0 20.0)
  end
  begin
     id 5 
     name ltoes
     direction 1.53561e-011 -4.21864e-011 1   
     length 0.925608   
     axis -90 7.62852e-016 20   XYZ
    dof rx
    limits (-90.0 20.0)
  end
  begin
     id 6 
     name rhipjoint
     direction -0.609094 -0.738725 0.288599   
     length 2.48624  
     axis 0 0 0  XYZ 
  end
  begin
     id 7 
     name rfemur
     direction -0.34202 -0.939693 0   
     length 7.44259   
     axis 0 0 -20   XYZ
    dof rx ry rz
    limits (-160.0 20.0)
           (-70.0 70.0)
           (-70.0 60.0)
  end
  begin
     id 8 
     name rtibia
     direction -0.34202 -0.939693 0   
     length 7.7781   
     axis 0 0 -20   XYZ
    dof rx
    limits (-10.0 170.0)
 end
 begin
     id 9 
     name rfoot
     direction -0.107015 -0.294021 0.949789   
     length 2.14741  
     axis -90 -7.62852e-016 -20   XYZ
    dof rx rz
    limits (-45.0 90.0)
           (-20.0 70.0)
  end
  begin
     id 10 
     name rtoes
     direction -1.53497e-011 -4.21924e-011 1   
     length 1.0706   
     axis -90 -7.62852e-016 -20   XYZ
    dof rx
    limits (-90.0 20.0)
  end
  begin
     id 11 
     name lowerback
     direction -0.0142066 0.998112 -0.0597545   
     length 1.86627   
     axis 0 0 0   XYZ
    dof rx ry rz
    limits (-20.0 45.0)
           (-30.0 30.0)
           (-30.0 30.0)
  end
  begin
     id 12 
     name upperback
     direction 0.00547294 0.999744 0.0219437   
     length 1.86272   
     axis 0 0 0   XYZ
    dof rx ry rz
    limits (-20.0 45.0)
           (-30.0 30.0)
           (-30.0 30.0)
  end
  begin
     id 13 
     name thorax
     direction 0.0116162 0.998704 0.0495538   
     length 1.8703   
     axis 0 0 0   XYZ
    dof rx ry rz
    limits (-20.0 45.0)
           (-30.0 30.0)
           (-30.0 30.0)
  end
  begin
     id 14 
     name lowerneck
     direction -0.0106574 0.998739 0.0490586   
     length 1.8074   
     axis 0 0 0   XYZ
    dof rx ry rz
    limits (-20.0 45.0)
           (-30.0 30.0)
           (-30.0 30.0)
  end
  begin
     id 15 
     name upperneck
     direction 0.030527 0.976587 -0.212944   
     length 1.80681   
     axis 0 0 0   XYZ
    dof rx ry rz
    limits (-20.0 45.0)
           (-30.0 30.0)
           (-30.0 30.0)
  end
  begin
     id 16
     name head
     direction 0.00869225 0.997035 -0.0764531  
     length 1.8313  
     axis 0 0 0   XYZ
    dof rx ry rz
    limits (-20.0 45.0)
           (-30.0 30.0)
           (-30.0 30.0)
  end
  begin
     id 17 
     name lclavicle
     direction 0.915958 0.399447 0.0382386  
     length 3.78965  
     axis 0 0 0   XYZ
    dof ry rz
    limits (-20.0 10.0)
           (0.0 20.0)
  end
  begin
     id 18 
     name lhumerus
     direction 1 -4.48967e-011 3.19303e-027   
     length 4.78095   
     axis -180 -30 -90   XYZ
    dof rx ry rz
    limits (-60.0 90.0)
           (-90.0 90.0)
           (-90.0 90.0)
  end
  begin
     id 19
     name lradius
     direction 1 -4.48967e-011 -3.77974e-027   
     length 3.58615   
     axis -180 -30 -90   XYZ
    dof rx
    limits (-10.0 170.0)
  end
  begin
     id 20
     name lwrist
     direction 1 -4.48927e-011 1.2807e-027   
     length 1.79307   
     axis 1.91374e-015 90 90   XYZ
    dof ry
    limits (-180.0 0.0)
 end
  begin
     id 21 
     name lhand
     direction 1 -4.49036e-011 2.5614e-027   
     length 0.659812   
     axis -1.63439e-015 90 90   XYZ
    dof rx rz
    limits (-90.0 90.0)
           (-45.0 45.0)
  end
  begin
     id 22 
     name lfingers
     direction 1 -4.49052e-011 5.1228e-027   
     length 0.531957   
     axis -3.26879e-015 90 90   XYZ
    dof rx
    limits (0.0 90.0)
  end
  begin
     id 23
     name lthumb
     direction 0.707107 -6.35012e-011 0.707107   
     length 0.763787   
     axis -90 45 2.85299e-015   XYZ
    dof rx rz
    limits (-45.0 45.0)
           (-45.0 45.0)
  end
  begin
     id 24 
     name rclavicle
     direction -0.895351 0.435135 0.0948887   
     length 3.70497  
     axis 0 0 0   XYZ 
    dof ry rz
    limits (-10.0 20.0)
           (-20.0 0.0)
  end
  begin
     id 25 
     name rhumerus
     direction -1 -4.48971e-011 2.38946e-027  
     length 4.48913   
     axis -180 30 90   XYZ
    dof rx ry rz
    limits (-90.0 60.0)
           (-90.0 90.0)
           (-90.0 90.0)
  end
  begin
     id 26 
     name rradius
     direction -1 -4.4895e-011 4.38668e-027   
     length 3.7051   
     axis -180 30 90   XYZ
    dof rx
    limits (-10.0 170.0)
  end
  begin
     id 27 
     name rwrist
     direction -1 -4.49007e-011 1.2807e-027   
     length 1.85255   
     axis 1.91374e-015 -90 -90   XYZ
    dof ry
    limits (-180.0 0.0)
  end
  begin
     id 28
     name rhand
     direction -1 -4.48851e-011 2.5614e-027   
     length 0.449136   
     axis -1.63439e-015 -90 -90   XYZ
    dof rx rz
    limits (-90.0 90.0)
           (-45.0 45.0)
  end
  begin
     id 29
     name rfingers
     direction -1 -4.49128e-011 5.1228e-027   
     length 0.362105   
     axis -3.26879e-015 -90 -90   XYZ
    dof rx
    limits (0.0 90.0)
  end
  begin
     id 30
     name rthumb
     direction -0.707107 -6.34851e-011 0.707107   
     length 0.519912   
     axis -90 -45 -2.85299e-015   XYZ
    dof rx rz
    limits (-45.0 45.0)
           (-45.0 45.0)
  end
:hierarchy
  begin
    root lhipjoint rhipjoint lowerback
    lhipjoint lfemur
    lfemur ltibia
    ltibia lfoot
    lfoot ltoes
    rhipjoint rfemur
    rfemur rtibia
    rtibia rfoot
    rfoot rtoes
    lowerback upperback
    upperback thorax
    thorax lowerneck lclavicle rclavicle
    lowerneck upperneck
    upperneck head
    lclavicle lhumerus
    lhumerus lradius
    lradius lwrist
    lwrist lhand lthumb
    lhand lfingers
    rclavicle rhumerus
    rhumerus rradius
    rradius rwrist
    rwrist rhand rthumb
    rhand rfingers
  end

#!OML:ASF I:\Actors\actors\Patient Classification 2\Patient 1\Session 1\actor1.ASF
:FULLY-SPECIFIED
:DEGREES
1
root -0.732434 18.6507 5.99968 0.500293 -2.00906 -2.24207
lowerback 0.612248 0.760563 0.326929
upperback -2.12272 1.03441 0.603565
thorax -2.52465 0.516405 0.406839
lowerneck -10.911 -1.13262 0.283051
upperneck 25.3392 -2.01952 1.32917
head 9.8315 -0.763202 0.181222
rclavicle -2.47735e-014 5.1684e-015
rhumerus -49.6817 -3.58791 -85.7612
rradius 45.0612
rwrist 3.1229
rhand -1.64239 -40.8745
rfingers 7.12502
rthumb 24.0163 -69.392
lclavicle -2.47735e-014 5.1684e-015
lhumerus -44.4004 4.58361 88.0723
lradius 38.6244
lwrist -10.0016
lhand -9.27712 -25.8246
lfingers 7.12502
lthumb 16.6797 3.47873
rfemur 0 0 0
rtibia 0
rfoot 0 0
rtoes 0
lfemur -2.73476 -8.33132 -12.6807
ltibia 21.6412
lfoot -24.5408 14.8961
ltoes -55.0847
2
root -0.732175 18.6507 6.00099 0.504942 -2.01749 -2.21498
lowerback 0.620451 0.762625 0.302024
upperback -2.13769 1.03668 0.59582
thorax -2.54498 0.517948 0.41254
lowerneck -10.938 -1.1304 0.257867
upperneck 25.3779 -2.01772 1.35106
head 9.85107 -0.761784 0.19315
rclavicle -1.10698e-014 -5.66536e-015
rhumerus -49.749 -3.70185 -85.7259
rradius 45.2221
rwrist 3.14957
rhand -1.73217 -40.7148
rfingers 7.12502
rthumb 23.9303 -69.2436
lclavicle -1.10698e-014 -5.66536e-015
lhumerus -44.3935 4.62666 88.0662
lradius 38.5788
lwrist -10.0138
lhand -9.28807 -25.7759
lfingers 7.12502
lthumb 16.6691 3.52837
rfemur 0 0 0
rtibia 0
rfoot 0 0
rtoes 0
lfemur -2.72936 -8.37441 -12.7235
ltibia 21.6383
lfoot -24.5611 14.9385
ltoes -55.0393
3
root -0.732964 18.6504 6.00279 0.497101 -2.03376 -2.21627
lowerback 0.645212 0.770607 0.281118
upperback -2.15219 1.0475 0.608773
thorax -2.57453 0.523907 0.436744
lowerneck -10.9573 -1.13541 0.184053
upperneck 25.4229 -2.02496 1.40885
head 9.87245 -0.765121 0.224912
rclavicle -2.15247e-014 -7.15625e-015
rhumerus -49.8237 -3.80337 -85.672
rradius 45.4128
rwrist 3.18911
rhand -1.64993 -40.7283
rfingers 7.12502
rthumb 24.0091 -69.2468
lclavicle -2.15247e-014 -7.15625e-015
lhumerus -44.4266 4.64206 88.082
lradius 38.5863
lwrist -10.0408
lhand -9.32259 -25.7516
lfingers 7.12502
lthumb 16.6359 3.55541
rfemur 0 0 0
rtibia 0
rfoot 0 0
rtoes 0
lfemur -2.70367 -8.39968 -12.732
ltibia 21.638
lfoot -24.5981 14.9699
ltoes -55.0195
4
root -0.733198 18.6504 6.00429 0.497222 -2.04168 -2.21005
lowerback 0.64074 0.775124 0.279635
upperback -2.15074 1.05346 0.608826
thorax -2.57059 0.526915 0.437534
lowerneck -10.9371 -1.13912 0.169484
upperneck 25.4117 -2.02726 1.41139
head 9.86473 -0.7675 0.228155
rclavicle -7.73397e-015 3.67752e-015
rhumerus -49.7885 -3.59643 -85.7898
rradius 45.4708
rwrist 2.93371
rhand -1.63777 -40.9513
rfingers 7.12502
rthumb 24.0208 -69.4683
lclavicle -7.73397e-015 3.67752e-015
lhumerus -44.4257 4.62681 88.097
lradius 38.58
lwrist -10.0545
lhand -9.27562 -25.7842
lfingers 7.12502
lthumb 16.6811 3.51905
rfemur 0 0 0
rtibia 0
rfoot 0 0
rtoes 0
lfemur -2.69245 -8.34534 -12.7343
ltibia 21.6278
lfoot -24.5917 14.9555
ltoes -55.0672
5
root -0.732368 18.6501 6.00582 0.504348 -2.05009 -2.17396
lowerback 0.630645 0.774925 0.282554
upperback -2.15686 1.05255 0.578983
thorax -2.57056 0.526065 0.40542
lowerneck -10.9329 -1.13042 0.195359
upperneck 25.43 -2.01524 1.38968
head 9.86989 -0.761794 0.217575
rclavicle 9.05713e-015 -1.98785e-015
rhumerus -49.7515 -3.38867 -85.9472
rradius 45.4872
rwrist 2.67956
rhand -1.73902 -41.0201
rfingers 7.12502
rthumb 23.9237 -69.5497
lclavicle 9.05713e-015 -1.98785e-015
lhumerus -44.4326 4.59436 88.0974
lradius 38.5891
lwrist -10.0129
lhand -9.19485 -25.7437
lfingers 7.12502
lthumb 16.7589 3.55303
rfemur 0 0 0
rtibia 0
rfoot 0 0
rtoes 0
lfemur -2.68952 -8.38588 -12.7838
ltibia 21.6215
lfoot -24.615 14.9908
ltoes -55.0366
6
root -0.731525 18.6498 6.00726 0.504821 -2.05596 -2.15817
lowerback 0.63173 0.774382 0.28895
upperback -2.16557 1.05165 0.56286
thorax -2.57971 0.525299 0.385244
lowerneck -10.9446 -1.12075 0.178171
upperneck 25.4714 -2.00538 1.41486
head 9.8874 -0.75559 0.230354
rclavicle -1.39149e-014 1.98785e-015
rhumerus -49.7653 -3.31877 -86.0219
rradius 45.5697
rwrist 2.57047
rhand -1.7947 -40.9945
rfingers 7.12502
rthumb 23.8703 -69.5312
lclavicle -1.39149e-014 1.98785e-015
lhumerus -44.4634 4.56287 88.1012
lradius 38.6289
lwrist -9.96664
lhand -9.20422 -25.6674
lfingers 7.12502
lthumb 16.7498 3.63005
rfemur 0 0 0
rtibia 0
rfoot 0 0
rtoes 0
lfemur -2.6757 -8.46395 -12.8172
ltibia 21.6141
lfoot -24.6299 15.0382
ltoes -54.9966
